#!OML:ASF E:\Steps\Project 1\Capture day 1\Session 2\Subject.ASF
:FULLY-SPECIFIED
:DEGREES
196
root 16.8814 16.2675 21.5722 -161.768 -14.8887 171.945
lowerback -18.4097 -0.390524 -4.82596
upperback 2.89064 0.677909 -0.785605
thorax 13.6304 -0.0424006 2.06256
lowerneck -3.89811 3.03295 -1.2117
upperneck 12.7295 3.57945 2.16508
head 4.87179 1.66764 1.13598
rclavicle -2.56432e-014 7.15625e-015
rhumerus -33.4649 -18.1258 -77.3828
rradius 32.974
rwrist -1.29942
rhand -9.40095 -411.672
rfingers 7.12502
rthumb 16.5605 -440.985
lclavicle -2.56432e-014 7.15625e-015
lhumerus -32.5624 5.43298 80.7612
lradius 23.1742
lwrist -3.36492
lhand -20.8643 -14.3694
lfingers 7.12502
lthumb 5.50532 15.5391
rfemur -20.8054 1.79371 18.0788
rtibia 23.2512
rfoot -28.882 -11.9839
rtoes -13.6297
lfemur -74.1884 -1.88381 -24.0858
ltibia 78.0191
lfoot -193.518 4.16712
ltoes -26.8578
197
root 16.8762 16.2651 21.5449 -162.203 -14.8832 171.869
lowerback -18.1518 -0.417127 -4.76852
upperback 2.96481 0.612135 -0.730294
thorax 13.5679 -0.0689649 2.07112
lowerneck -3.75616 3.09998 -1.31822
upperneck 12.6724 3.69141 2.0587
head 4.81908 1.71172 1.11975
rclavicle 6.36111e-014 -1.43125e-014
rhumerus -33.5397 -17.7561 -77.4247
rradius 33.1922
rwrist -1.9129
rhand -10.4352 -410.967
rfingers 7.12502
rthumb 15.5646 -440.36
lclavicle 6.36111e-014 -1.43125e-014
lhumerus -32.8342 5.72832 80.5591
lradius 23.1458
lwrist -3.46097
lhand -20.7189 -14.2667
lfingers 7.12502
lthumb 5.64575 15.638
rfemur -20.31 1.95246 18.0201
rtibia 23.4172
rfoot -28.9882 -12.32
rtoes -15.0624
lfemur -74.7782 -1.38851 -23.7213
ltibia 77.8277
lfoot -193.267 3.86473
ltoes -25.9723
198
root 16.8679 16.2609 21.5335 -162.274 -14.9692 171.693
lowerback -18.0565 -0.443285 -4.69082
upperback 2.96542 0.554408 -0.73435
thorax 13.5161 -0.0877375 2.00496
lowerneck -3.69471 3.13792 -1.4574
upperneck 12.5162 3.77035 2.012
head 4.74522 1.74589 1.12815
rclavicle 5.34731e-014 7.95139e-015
rhumerus -33.379 -17.5744 -77.532
rradius 33.0193
rwrist -1.7
rhand -10.0235 -411.776
rfingers 7.12502
rthumb 15.961 -441.138
lclavicle 5.34731e-014 7.95139e-015
lhumerus -32.8729 5.94232 80.3824
lradius 23.0482
lwrist -3.48287
lhand -20.3731 -14.5623
lfingers 7.12502
lthumb 5.97958 15.3333
rfemur -20.1851 1.76069 17.8566
rtibia 23.5504
rfoot -28.9882 -12.4006
rtoes -15.8633
lfemur -75.7466 -1.1971 -23.4126
ltibia 77.6641
lfoot -193.244 3.4967
ltoes -26.3571
199
root 16.8621 16.2542 21.5118 -162.449 -15.1283 171.454
lowerback -17.9528 -0.49935 -4.76011
upperback 3.00605 0.493929 -0.766049
thorax 13.5065 -0.120022 1.99027
lowerneck -3.66884 3.20776 -1.44466
upperneck 12.4913 3.8729 1.95105
head 4.73007 1.79467 1.10919
rclavicle -1.09332e-014 -1.98785e-014
rhumerus -33.2377 -17.6667 -77.5586
rradius 32.7422
rwrist -1.49971
rhand -10.3927 -410.48
rfingers 7.12502
rthumb 15.6055 -439.87
lclavicle -1.09332e-014 -1.98785e-014
lhumerus -32.7663 6.21756 80.0794
lradius 22.7109
lwrist -3.72449
lhand -20.0438 -14.7092
lfingers 7.12502
lthumb 6.29751 15.1772
rfemur -19.887 1.76103 17.6334
rtibia 23.7558
rfoot -29.1111 -12.5477
rtoes -15.2745
lfemur -76.4658 -1.07535 -23.0723
ltibia 77.8398
lfoot -193.106 3.0975
ltoes -26.9855
200
root 16.8445 16.2422 21.4996 -162.274 -14.8414 171.253
lowerback -18.177 -0.402505 -4.6747
upperback 2.89829 0.620336 -0.846795
thorax 13.506 -0.0509425 1.8893
lowerneck -3.61956 3.23123 -1.36537
upperneck 12.6076 3.8987 1.85956
head 4.76598 1.80204 1.06618
rclavicle 2.68359e-014 -1.19271e-014
rhumerus -33.3485 -17.6713 -77.5024
rradius 32.7709
rwrist -1.47452
rhand -10.7488 -410.752
rfingers 7.12502
rthumb 15.2624 -440.169
lclavicle 2.68359e-014 -1.19271e-014
lhumerus -32.7642 6.48716 79.8401
lradius 22.2699
lwrist -4.38622
lhand -20.5007 -14.767
lfingers 7.12502
lthumb 5.8564 15.1321
rfemur -20.3857 1.76477 17.3218
rtibia 24.5235
rfoot -29.4108 -12.3605
rtoes -15.2777
lfemur -77.5634 -0.632385 -22.8515
ltibia 78.0785
lfoot -192.987 2.94479
ltoes -25.3914
201
root 16.831 16.2327 21.4699 -162.492 -14.6756 170.997
lowerback -18.2223 -0.384495 -4.79267
upperback 2.97973 0.678841 -0.854099
thorax 13.6241 -0.0368494 1.96527
lowerneck -3.58566 3.18606 -1.35684
upperneck 12.7559 3.83641 1.76127
head 4.81738 1.76129 1.02982
rclavicle -3.4191e-014 -3.18055e-015
rhumerus -33.4111 -17.5794 -77.4549
rradius 32.9922
rwrist -1.45929
rhand -9.45607 -411.228
rfingers 7.12502
rthumb 16.5074 -440.546
lclavicle -3.4191e-014 -3.18055e-015
lhumerus -32.74 6.71839 79.7557
lradius 21.9053
lwrist -4.69372
lhand -21.1558 -15.1154
lfingers 7.12502
lthumb 5.22396 14.8002
rfemur -20.1639 1.99569 17.0152
rtibia 24.9355
rfoot -29.7657 -12.5432
rtoes -15.3287
lfemur -78.091 -0.188022 -22.6475
ltibia 78.4507
lfoot -193.006 2.69151
ltoes -25.273
